<mxfile host="app.diagrams.net" modified="2023-01-10T03:45:34.812Z" agent="5.0 (Windows NT 10.0; Win64; x64) AppleWebKit/537.36 (KHTML, like Gecko) Chrome/108.0.0.0 Safari/537.36" etag="CrtoHxTZQWoL2eMNpNSz" version="20.8.3" type="github">
  <diagram id="R2lEEEUBdFMjLlhIrx00" name="Page-1">
    <mxGraphModel dx="1434" dy="794" grid="1" gridSize="10" guides="1" tooltips="1" connect="1" arrows="1" fold="1" page="1" pageScale="1" pageWidth="850" pageHeight="1100" math="0" shadow="0" extFonts="Permanent Marker^https://fonts.googleapis.com/css?family=Permanent+Marker">
      <root>
        <mxCell id="0" />
        <mxCell id="1" parent="0" />
        <mxCell id="TfROTFcJluRfFDihY3kL-1" value="Usuario" style="swimlane;whiteSpace=wrap;html=1;" vertex="1" parent="1">
          <mxGeometry x="370" y="20" width="140" height="120" as="geometry" />
        </mxCell>
        <mxCell id="TfROTFcJluRfFDihY3kL-2" value="nome&lt;br&gt;email&lt;br&gt;senha&lt;br&gt;tipo&lt;br&gt;status" style="text;html=1;align=center;verticalAlign=middle;resizable=0;points=[];autosize=1;strokeColor=none;fillColor=none;" vertex="1" parent="TfROTFcJluRfFDihY3kL-1">
          <mxGeometry x="40" y="24.5" width="60" height="90" as="geometry" />
        </mxCell>
        <mxCell id="TfROTFcJluRfFDihY3kL-3" value="Admin" style="swimlane;whiteSpace=wrap;html=1;" vertex="1" parent="1">
          <mxGeometry x="60" y="60" width="125" height="59" as="geometry" />
        </mxCell>
        <mxCell id="TfROTFcJluRfFDihY3kL-4" value="Lista" style="swimlane;whiteSpace=wrap;html=1;" vertex="1" parent="1">
          <mxGeometry x="50" y="200" width="130" height="60" as="geometry" />
        </mxCell>
        <mxCell id="TfROTFcJluRfFDihY3kL-5" value="nome" style="text;html=1;align=center;verticalAlign=middle;resizable=0;points=[];autosize=1;strokeColor=none;fillColor=none;" vertex="1" parent="TfROTFcJluRfFDihY3kL-4">
          <mxGeometry x="40" y="30" width="50" height="30" as="geometry" />
        </mxCell>
        <mxCell id="TfROTFcJluRfFDihY3kL-7" value="Cliente" style="swimlane;whiteSpace=wrap;html=1;" vertex="1" parent="1">
          <mxGeometry x="250" y="190" width="135" height="97" as="geometry" />
        </mxCell>
        <mxCell id="TfROTFcJluRfFDihY3kL-8" value="cpf&lt;br&gt;telefone&lt;br&gt;endereco" style="text;html=1;align=center;verticalAlign=middle;resizable=0;points=[];autosize=1;strokeColor=none;fillColor=none;" vertex="1" parent="TfROTFcJluRfFDihY3kL-7">
          <mxGeometry x="32.5" y="26" width="70" height="60" as="geometry" />
        </mxCell>
        <mxCell id="TfROTFcJluRfFDihY3kL-9" value="Mercado" style="swimlane;whiteSpace=wrap;html=1;" vertex="1" parent="1">
          <mxGeometry x="500" y="190" width="130" height="96" as="geometry" />
        </mxCell>
        <mxCell id="TfROTFcJluRfFDihY3kL-10" value="cnpj&lt;br&gt;telefone&lt;br&gt;endereco" style="text;html=1;align=center;verticalAlign=middle;resizable=0;points=[];autosize=1;strokeColor=none;fillColor=none;" vertex="1" parent="TfROTFcJluRfFDihY3kL-9">
          <mxGeometry x="30" y="26" width="70" height="60" as="geometry" />
        </mxCell>
        <mxCell id="TfROTFcJluRfFDihY3kL-11" value="Estoque" style="swimlane;whiteSpace=wrap;html=1;" vertex="1" parent="1">
          <mxGeometry x="720" y="195" width="70" height="70" as="geometry" />
        </mxCell>
        <mxCell id="TfROTFcJluRfFDihY3kL-12" value="nome" style="text;html=1;align=center;verticalAlign=middle;resizable=0;points=[];autosize=1;strokeColor=none;fillColor=none;" vertex="1" parent="TfROTFcJluRfFDihY3kL-11">
          <mxGeometry x="10" y="31.5" width="50" height="30" as="geometry" />
        </mxCell>
        <mxCell id="TfROTFcJluRfFDihY3kL-13" value="ItensLista" style="swimlane;whiteSpace=wrap;html=1;" vertex="1" parent="1">
          <mxGeometry x="67.5" y="355" width="95" height="70" as="geometry" />
        </mxCell>
        <mxCell id="TfROTFcJluRfFDihY3kL-14" value="quantidade" style="text;html=1;align=center;verticalAlign=middle;resizable=0;points=[];autosize=1;strokeColor=none;fillColor=none;" vertex="1" parent="TfROTFcJluRfFDihY3kL-13">
          <mxGeometry x="5" y="30" width="80" height="30" as="geometry" />
        </mxCell>
        <mxCell id="TfROTFcJluRfFDihY3kL-15" value="ItensEstoque" style="swimlane;whiteSpace=wrap;html=1;" vertex="1" parent="1">
          <mxGeometry x="705" y="345" width="100" height="80" as="geometry" />
        </mxCell>
        <mxCell id="TfROTFcJluRfFDihY3kL-16" value="quantidade&lt;br&gt;preco" style="text;html=1;align=center;verticalAlign=middle;resizable=0;points=[];autosize=1;strokeColor=none;fillColor=none;" vertex="1" parent="TfROTFcJluRfFDihY3kL-15">
          <mxGeometry x="10" y="30" width="80" height="40" as="geometry" />
        </mxCell>
        <mxCell id="TfROTFcJluRfFDihY3kL-17" value="Produto" style="swimlane;whiteSpace=wrap;html=1;" vertex="1" parent="1">
          <mxGeometry x="385" y="360" width="70" height="70" as="geometry" />
        </mxCell>
        <mxCell id="TfROTFcJluRfFDihY3kL-18" value="nome" style="text;html=1;align=center;verticalAlign=middle;resizable=0;points=[];autosize=1;strokeColor=none;fillColor=none;" vertex="1" parent="TfROTFcJluRfFDihY3kL-17">
          <mxGeometry x="10" y="30" width="50" height="30" as="geometry" />
        </mxCell>
      </root>
    </mxGraphModel>
  </diagram>
</mxfile>
